# xmcd
#
# Track frame offsets: 
#        150
#        19797
#        38507
#        59630
#        76805
#        94987
#        113731
#        136883
#        154771
#        182611
#
# Disc length: 2616 seconds
#
# Revision: 0
# Processed by: cddbd v1.5.2PL0 Copyright (c) Steve Scherf et al.
# Submitted via: ExactAudioCopy v1.3
#
DISCID=760a360a
DTITLE=Drew Morrison And The Darkwood - Electric-Notes Wild
DYEAR=2018
DGENRE=Country Soul
TTITLE0=Always
TTITLE1=Keep A Movin' On
TTITLE2=Ladytime
TTITLE3=Islands
TTITLE4=Like We Used To Do
TTITLE5=Let Me Break Your Heart Tonight
TTITLE6=In Your Own Time
TTITLE7=Country Soul
TTITLE8=Sad Music
TTITLE9=Nightbirds
EXTD=
EXTT0=
EXTT1=
EXTT2=
EXTT3=
EXTT4=
EXTT5=
EXTT6=
EXTT7=
EXTT8=
EXTT9=
PLAYORDER=
